<?xml version="1.0" standalone="no"?>
<!DOCTYPE svg PUBLIC "-//W3C//DTD SVG 20010904//EN"
 "http://www.w3.org/TR/2001/REC-SVG-20010904/DTD/svg10.dtd">
<svg version="1.0" xmlns="http://www.w3.org/2000/svg"
 width="500.000000pt" height="500.000000pt" viewBox="0 0 500.000000 500.000000"
 preserveAspectRatio="xMidYMid meet">

<g transform="translate(0.000000,500.000000) scale(0.100000,-0.100000)"
fill="#000000" stroke="none">
<path d="M2425 4598 c-151 -28 -342 -112 -552 -242 l-131 -81 5 -36 c4 -32 1
-39 -26 -58 -17 -12 -31 -19 -31 -15 0 3 -6 1 -14 -5 -12 -10 -15 -76 -18
-379 -3 -357 -4 -368 -26 -416 -25 -55 -83 -131 -113 -146 -14 -8 -25 -7 -43
5 -23 16 -24 15 -54 -33 -143 -233 -223 -580 -193 -843 19 -173 80 -374 153
-514 37 -70 146 -220 202 -279 40 -42 52 -62 48 -78 -4 -17 -2 -19 17 -13 38
12 22 -6 -24 -26 -36 -16 -50 -30 -66 -65 -12 -25 -19 -47 -16 -51 4 -3 12 7
19 22 8 19 30 36 63 51 65 29 120 78 170 150 36 52 40 64 40 118 0 34 -4 85
-8 114 -6 34 -5 52 1 52 20 0 70 -50 97 -96 24 -42 27 -55 27 -151 l1 -105
-38 -45 c-37 -44 -45 -72 -10 -33 10 11 23 20 28 20 19 0 -28 -42 -73 -65 -54
-27 -158 -55 -206 -55 -19 0 -34 -4 -34 -8 0 -23 30 -32 102 -32 71 0 89 -4
199 -50 l120 -51 574 0 573 0 125 51 c118 47 130 50 216 50 79 0 96 3 121 22
40 29 24 38 -73 38 -76 0 -78 1 -75 23 2 17 11 23 38 27 l35 6 -35 22 c-19 12
-38 22 -42 22 -5 0 -8 7 -8 15 0 10 10 15 28 15 39 0 64 30 60 71 l-3 33 -164
-3 c-132 -2 -162 0 -159 11 3 9 39 17 109 25 57 6 129 18 159 27 31 9 40 14
20 11 -19 -3 -91 -8 -159 -12 -104 -5 -123 -4 -119 8 2 8 30 21 60 29 75 20
77 25 11 25 -36 0 -58 4 -60 13 -3 7 5 12 20 12 28 0 101 24 210 70 81 34 100
51 30 26 -23 -8 -87 -24 -143 -36 -124 -25 -145 -17 -85 33 22 17 53 45 70 60
l30 28 -37 -15 c-21 -8 -38 -12 -38 -8 0 3 -5 1 -12 -6 -19 -19 -28 -14 -28
18 0 32 27 62 103 112 42 28 45 38 4 17 -11 -7 -43 -18 -69 -25 -47 -12 -48
-12 -48 10 0 24 22 57 90 138 l45 53 -51 -37 c-28 -21 -54 -35 -58 -31 -3 3
-6 2 -6 -4 0 -5 -7 -10 -15 -10 -25 0 -17 44 13 79 16 18 42 51 58 73 l29 40
-51 -38 c-29 -20 -54 -37 -58 -37 -15 0 -3 43 33 121 52 112 70 168 76 237 4
52 4 54 -5 18 -16 -62 -68 -149 -116 -197 -37 -36 -46 -41 -54 -29 -14 22 -12
117 4 177 13 50 13 51 -4 40 -10 -6 -16 -15 -14 -19 3 -4 0 -8 -5 -8 -16 0
-13 30 9 95 26 77 25 86 -6 50 l-27 -30 7 63 c4 34 14 81 22 104 21 59 11 58
-15 -3 -17 -39 -51 -176 -51 -205 0 -2 -4 -4 -9 -4 -12 0 -41 86 -41 120 0 15
11 64 25 111 14 46 28 93 31 104 3 11 -13 -14 -36 -55 -23 -41 -46 -77 -51
-78 -5 -2 -7 -8 -3 -13 3 -5 1 -9 -5 -9 -5 0 -11 -8 -13 -17 -3 -15 -5 -14
-10 5 -4 15 -2 20 5 16 7 -3 3 2 -8 11 -48 38 -24 249 40 361 45 77 129 136
170 120 9 -3 13 -2 10 4 -31 50 110 -79 147 -134 34 -50 37 -40 4 12 -25 39
-179 192 -231 230 -44 31 -12 27 83 -13 111 -45 167 -79 230 -138 65 -62 88
-126 78 -221 -5 -43 -1 -93 13 -166 31 -166 31 -170 41 -347 9 -171 39 -368
86 -574 15 -63 29 -124 31 -136 4 -18 12 -23 34 -23 19 0 29 5 29 15 0 9 15
46 34 83 128 256 172 529 128 788 -34 196 -101 383 -186 514 -33 51 -34 55
-15 58 28 5 44 -11 86 -86 l36 -65 28 55 c51 100 64 162 63 298 -1 109 -4 135
-27 202 -51 146 -112 247 -204 340 -31 32 -58 56 -60 54 -2 -2 2 -16 9 -32 17
-40 24 -564 8 -616 -13 -45 -49 -73 -81 -63 -32 10 -238 152 -281 192 -20 20
-47 59 -60 87 -22 49 -23 61 -23 296 0 220 2 249 19 283 29 58 88 81 150 57
19 -7 30 -5 47 9 l22 18 -84 50 c-134 80 -189 108 -274 143 -44 18 -84 36 -90
40 -28 21 -164 71 -230 85 -82 17 -288 19 -370 3z m324 -63 c67 -16 150 -61
183 -98 11 -12 29 -42 41 -67 20 -42 22 -62 25 -285 4 -230 -4 -315 -27 -315
-5 0 -12 16 -15 36 -5 25 -24 53 -62 91 l-54 55 0 183 0 182 -26 26 c-33 34
-131 58 -145 36 -6 -8 -9 -92 -7 -199 2 -102 -1 -191 -5 -197 -5 -7 -18 -13
-30 -13 -12 0 -41 -9 -64 -19 -23 -11 -43 -15 -45 -10 -2 5 -2 144 0 309 l3
300 82 0 c45 0 111 -7 146 -15z m-490 -774 c-27 -63 -45 -79 -159 -142 -155
-86 -166 -90 -193 -84 -44 12 -47 34 -47 403 l0 348 65 37 c35 20 67 37 70 37
3 0 5 -129 5 -287 0 -159 4 -294 9 -302 12 -19 59 0 101 39 l30 28 0 300 0
300 48 20 c96 41 87 73 90 -311 2 -324 1 -340 -19 -386z m574 146 c72 -42 99
-97 105 -211 2 -52 0 -101 -5 -111 -7 -12 -12 11 -16 84 -9 177 -62 238 -216
249 -59 4 -77 1 -125 -21 -31 -14 -56 -29 -56 -33 0 -3 8 -3 18 0 9 4 1 -7
-18 -23 -19 -17 -31 -30 -26 -31 5 0 19 8 30 18 11 9 4 -2 -16 -25 -23 -26
-35 -49 -32 -58 3 -8 11 -12 18 -8 6 4 5 -1 -2 -10 -8 -9 -10 -22 -6 -28 5 -8
3 -9 -6 -4 -8 5 -11 3 -8 -6 3 -8 10 -13 16 -12 12 3 6 -43 -9 -66 -7 -12 -9
-5 -4 24 5 37 4 39 -10 21 -14 -18 -15 -15 -15 41 0 109 42 185 125 225 62 29
195 22 258 -15z m-303 -110 c0 -2 -12 -14 -27 -28 l-28 -24 24 28 c23 25 31
32 31 24z m485 -210 c15 -27 26 -61 26 -88 l2 -44 7 35 6 35 9 -28 c13 -47 -2
-136 -44 -261 -22 -65 -37 -125 -34 -134 5 -11 3 -13 -7 -7 -9 5 -11 4 -6 -3
4 -6 2 -29 -3 -49 -5 -21 -11 -74 -12 -118 -3 -98 -12 -115 -47 -83 l-25 23
13 -25 c7 -14 33 -53 57 -86 23 -34 43 -65 43 -69 0 -14 -75 7 -130 35 l-55
29 55 -50 c30 -28 80 -65 110 -82 l55 -32 -33 -3 c-39 -4 -156 23 -192 44 -17
10 -13 5 10 -16 40 -36 148 -90 179 -90 12 0 21 -3 21 -8 0 -37 -168 -40 -259
-3 -30 12 -68 31 -85 42 -25 17 -23 14 9 -17 49 -45 124 -81 196 -94 56 -11
179 -7 214 6 20 7 20 7 1 -14 -10 -12 -48 -31 -83 -43 -55 -18 -78 -20 -139
-15 -151 14 -288 64 -377 137 -60 50 -32 52 41 3 57 -38 217 -102 228 -91 2 2
-30 17 -71 34 -83 35 -205 111 -205 128 0 13 114 165 203 271 137 162 258 373
292 510 29 111 31 170 10 221 -16 38 -17 43 -10 43 2 0 16 -20 30 -43z m-497
8 c-3 -3 -9 2 -12 12 -6 14 -5 15 5 6 7 -7 10 -15 7 -18z m12 -62 c25 -12 53
-24 63 -27 9 -3 17 -14 17 -25 0 -11 16 -40 35 -65 l35 -46 -25 0 c-13 0 -49
9 -80 21 -57 21 -75 42 -89 104 -4 17 -9 38 -13 49 -3 10 -1 17 3 14 5 -2 29
-13 54 -25z m-83 -60 c-3 -16 -13 -53 -23 -83 -25 -82 -23 -273 5 -365 15 -51
19 -59 16 -30 -3 22 -7 110 -9 195 -2 85 -2 135 0 110 5 -50 43 -293 47 -296
1 -1 0 81 -1 182 -5 219 12 251 22 44 7 -156 23 -244 61 -346 23 -63 24 -67 6
-49 -11 11 -34 45 -51 75 -24 42 -30 48 -25 25 3 -16 22 -55 41 -87 42 -69 43
-78 3 -36 l-31 33 21 -38 c26 -47 26 -55 2 -33 -18 16 -18 16 -14 -11 5 -27 5
-28 -12 -8 -16 20 -16 19 -11 -7 10 -44 -10 -41 -53 9 -42 49 -45 36 -6 -27
12 -19 25 -40 28 -47 5 -7 -3 -6 -22 3 -35 17 -67 68 -81 127 -5 23 -14 117
-19 209 -6 116 -13 171 -22 181 -14 15 -19 3 -42 -101 -2 -7 -6 -12 -10 -12
-4 0 -13 0 -20 0 -25 0 -50 72 -55 157 -8 139 28 186 178 234 77 25 83 24 77
-8z m-199 -35 c-44 -25 -67 -69 -78 -147 -8 -60 4 -172 25 -233 7 -21 9 -38 5
-38 -14 0 -91 67 -136 118 -26 29 -48 51 -50 49 -7 -6 33 -93 61 -134 32 -47
31 -53 -2 -53 -37 0 -73 25 -121 85 -55 70 -91 101 -134 119 -42 18 -105 21
-128 6 -11 -7 -3 -10 31 -10 52 0 123 -39 156 -86 21 -30 63 -109 63 -119 0
-3 -23 11 -50 31 -55 39 -137 74 -173 73 -19 0 -17 -2 8 -11 44 -15 128 -81
145 -112 13 -26 13 -29 -4 -41 -16 -12 -24 -9 -64 19 -58 41 -102 56 -156 55
l-41 -1 45 -8 c67 -12 98 -26 131 -62 36 -39 68 -95 47 -81 -7 4 -38 24 -68
44 -86 56 -115 60 -50 6 32 -26 67 -67 84 -98 l29 -54 -29 27 c-16 15 -49 34
-74 43 -49 17 -171 21 -210 7 -16 -6 3 -7 58 -4 103 6 167 -10 210 -51 17 -17
32 -36 32 -41 0 -6 -7 -1 -15 11 -16 23 -95 63 -122 62 -12 0 -9 -3 7 -8 71
-22 120 -64 120 -104 0 -17 -2 -17 -22 -3 -12 9 -29 16 -38 16 -8 0 2 -10 23
-22 26 -15 37 -29 37 -45 0 -23 0 -23 -27 -6 -21 14 -48 18 -128 18 -93 0
-105 -2 -173 -34 -40 -19 -86 -50 -102 -68 -17 -19 -30 -29 -30 -23 0 24 32
70 72 104 44 38 45 47 1 19 l-26 -17 7 29 c4 17 14 37 22 46 8 9 11 18 8 22
-4 3 -3 14 1 24 4 10 9 25 10 33 8 54 73 246 102 303 48 90 86 116 247 168 72
23 183 68 246 100 112 57 210 97 240 98 8 0 -2 -9 -22 -21z m396 -95 c36 5 43
2 73 -31 l34 -37 -31 -28 -32 -29 -26 24 -27 23 20 -23 c15 -18 16 -25 6 -31
-8 -6 -2 -10 21 -15 23 -5 29 -9 20 -15 -10 -6 -4 -10 17 -14 46 -10 37 -27
-13 -27 -39 0 -48 4 -70 33 -22 29 -116 208 -116 221 0 4 19 -8 43 -25 35 -26
49 -30 81 -26z m563 -5 l27 -28 -35 0 c-39 0 -82 -26 -121 -72 l-28 -33 22 53
c12 29 33 66 48 82 25 27 26 30 11 46 -14 14 -11 14 17 -2 18 -10 45 -31 59
-46z m-278 -93 c-18 -36 -36 -68 -41 -71 -4 -3 8 26 27 65 19 38 35 75 36 83
0 9 2 10 6 1 2 -7 -10 -42 -28 -78z m-280 -285 c23 -32 26 -46 11 -55 -15 -9
-51 72 -56 128 l-4 52 13 -48 c8 -27 24 -61 36 -77z m83 66 c7 -13 7 -16 -1
-12 -6 4 -18 22 -27 39 -14 30 -14 31 1 12 9 -11 21 -28 27 -39z m-708 -172
c95 -49 130 -75 211 -164 77 -85 107 -142 130 -250 14 -68 19 -112 29 -290 6
-89 -9 -43 -34 112 -28 165 -82 302 -141 353 l-23 20 22 -32 c24 -34 48 -94
62 -156 7 -32 6 -36 -6 -26 -18 15 -18 5 0 -29 25 -49 86 -238 70 -217 -8 11
-38 63 -66 115 -28 52 -63 111 -77 130 -67 94 -204 210 -295 250 -25 12 -46
24 -46 28 0 16 30 124 44 157 9 20 22 35 32 35 9 0 49 -16 88 -36z m-73 -236
c33 -22 58 -43 56 -44 -2 -2 -21 3 -43 11 -21 7 -56 17 -76 20 -31 5 -38 10
-38 29 0 47 14 45 101 -16z m-224 -48 c102 -50 151 -69 159 -62 4 4 3 1 -1 -7
-6 -11 -4 -13 9 -8 9 4 15 3 12 -2 -3 -5 1 -15 10 -22 27 -22 57 -91 44 -99
-8 -5 -7 -9 5 -13 22 -9 55 -84 54 -127 0 -29 -1 -32 -10 -17 -6 10 -8 25 -5
33 3 8 1 14 -4 14 -4 0 -14 15 -20 34 -6 19 -20 46 -31 60 -11 14 -18 26 -14
26 16 0 -53 74 -89 94 -54 31 -91 43 -81 25 6 -9 3 -11 -8 -6 -24 9 -21 0 4
-14 17 -9 20 -8 14 2 -5 7 -4 10 3 5 6 -4 9 -12 7 -19 -2 -7 23 -34 56 -61 63
-52 114 -136 126 -209 8 -49 -10 -48 -30 1 -16 40 -91 144 -127 177 -15 14
-11 3 13 -33 35 -54 73 -168 65 -193 -2 -7 -44 46 -92 119 -83 125 -107 154
-92 115 5 -13 0 -11 -19 7 l-26 24 16 -43 c8 -23 35 -79 60 -123 25 -44 45
-82 45 -85 0 -2 -14 5 -31 17 -40 30 -72 79 -114 181 -66 158 -68 200 -12 224
41 18 33 19 104 -15z m299 -55 c138 -67 162 -93 255 -275 83 -163 135 -258
152 -278 24 -29 -34 8 -82 53 -25 24 -62 52 -81 63 -19 11 -34 25 -33 30 2 6
-4 9 -12 6 -16 -6 -77 54 -69 68 3 4 1 8 -5 8 -6 0 -22 37 -36 83 -13 45 -32
92 -40 105 -30 42 3 22 50 -30 38 -43 44 -46 29 -19 -11 18 -61 72 -112 119
-69 63 -106 90 -145 103 -28 10 -53 22 -55 28 -6 18 68 -8 184 -64z m-609 0
c0 -8 -5 -11 -10 -8 -6 3 -7 1 -3 -6 6 -9 11 -9 22 0 8 6 15 8 16 3 0 -5 2
-13 2 -19 1 -5 8 -20 14 -33 11 -19 10 -23 -4 -29 -20 -7 -62 14 -78 39 -8 13
-5 23 14 43 28 29 27 29 27 10z m1158 -96 c138 -67 346 -84 483 -41 34 11 62
18 62 16 0 -15 -134 -65 -190 -71 -36 -3 -59 -8 -52 -11 29 -9 9 -22 -25 -16
-118 22 -334 117 -380 167 l-28 31 35 -23 c19 -12 62 -36 95 -52z m-65 -153
c19 -26 40 -56 45 -66 6 -10 17 -25 25 -35 16 -20 75 -52 65 -35 -4 6 10 2 31
-9 29 -16 41 -18 51 -9 11 8 21 5 44 -18 23 -22 79 -106 79 -119 0 -1 -35 6
-77 15 -43 10 -103 23 -133 29 -31 6 -69 20 -87 30 -55 34 -99 146 -127 326
l-7 40 28 -50 c16 -27 44 -72 63 -99z m-885 -37 c35 -69 104 -119 163 -119 17
0 43 -7 58 -15 16 -8 42 -15 57 -15 18 0 26 -4 21 -11 -3 -6 0 -15 7 -20 12
-7 11 -9 -1 -10 -8 0 -4 -5 10 -9 22 -7 21 -8 -12 -9 -21 -1 -81 10 -133 24
-53 13 -133 27 -178 29 -79 5 -80 5 -22 -4 32 -6 84 -17 115 -26 67 -19 221
-97 245 -124 15 -17 2 -15 -86 16 -97 33 -264 67 -282 56 -5 -2 -6 -16 -2 -30
l6 -25 -28 18 c-35 22 -53 44 -48 58 2 7 9 31 15 55 9 36 15 42 38 43 l27 2
-28 4 c-20 3 -27 9 -23 21 3 9 10 46 16 82 21 122 20 120 35 79 7 -20 21 -51
30 -70z m1135 26 c0 -8 -2 -15 -4 -15 -2 0 -6 7 -10 15 -3 8 -1 15 4 15 6 0
10 -7 10 -15z m106 -91 c16 -14 -1 -6 -38 17 -38 23 -68 43 -68 46 0 7 76 -38
106 -63z m251 -48 c0 0 -21 -36 -47 -79 -47 -76 -49 -78 -62 -56 -7 12 -31 50
-54 85 l-41 62 101 -5 c56 -3 102 -6 103 -7z m87 -135 c-18 -47 -73 -151 -80
-151 -2 0 -4 14 -4 30 0 19 5 30 14 30 13 0 75 125 77 158 1 15 2 15 6 -2 3
-10 -3 -39 -13 -65z m-371 -60 c26 -11 46 -27 49 -39 3 -11 25 -30 49 -42 24
-12 52 -30 62 -38 17 -15 20 -15 38 8 25 34 25 10 -1 -65 -28 -81 -71 -155
-147 -252 -75 -96 -111 -127 -173 -143 -83 -22 -214 10 -277 70 -37 34 -39 22
-2 -16 33 -35 121 -83 184 -99 l30 -8 -40 -12 c-57 -18 -184 3 -169 27 5 7 2
8 -5 3 -23 -14 -106 85 -129 153 l-21 62 74 35 c40 19 93 37 117 41 24 4 50
11 58 16 17 10 -148 4 -190 -7 -21 -5 -18 0 20 35 55 50 118 89 185 113 l50
18 -52 -5 c-28 -3 -71 -14 -94 -25 -23 -12 -45 -19 -47 -16 -8 8 83 91 144
132 106 71 205 89 287 54z m-254 6 c-19 -15 -79 -47 -79 -43 0 8 62 46 74 46
5 0 7 -1 5 -3z m-454 -297 c-3 -5 -26 -24 -51 -40 -40 -28 -44 -29 -44 -12 0
26 43 54 93 61 5 0 5 -3 2 -9z m28 -194 c-7 -11 -25 -21 -40 -23 -23 -2 -25
-1 -8 6 11 5 23 7 28 4 4 -2 7 1 7 7 0 7 -6 10 -12 7 -7 -2 -23 -1 -35 4 -22
8 -22 9 -7 45 8 20 27 55 42 77 l27 41 5 -75 c4 -51 2 -80 -7 -93z m1194 24
c33 -20 57 -53 46 -64 -3 -3 3 -6 15 -6 33 0 27 -12 -18 -38 -27 -15 -62 -24
-108 -27 l-67 -5 55 18 c53 18 54 19 25 24 -17 4 -65 -3 -109 -13 -84 -21
-117 -22 -124 -1 -2 8 8 12 30 12 34 0 131 40 142 59 10 15 6 14 -45 -8 -24
-10 -60 -22 -79 -25 l-35 -7 35 21 35 21 -45 -7 c-25 -3 -53 -10 -62 -15 -22
-12 -115 -12 -122 0 -4 5 13 12 36 16 144 22 218 36 253 49 56 20 105 19 142
-4z"/>
<path d="M3031 3424 c0 -11 3 -14 6 -6 3 7 2 16 -1 19 -3 4 -6 -2 -5 -13z"/>
<path d="M2947 3183 c-63 -126 -177 -297 -268 -403 -128 -148 -161 -190 -151
-190 23 0 229 249 315 381 57 87 164 296 156 304 -3 2 -26 -39 -52 -92z"/>
<path d="M2666 2687 c-51 -52 -89 -98 -84 -102 2 -1 34 31 71 71 73 78 83 104
13 31z"/>
<path d="M2670 2643 l-55 -58 58 55 c31 30 57 56 57 57 0 8 -10 -1 -60 -54z"/>
<path d="M3010 2420 c-8 -5 -10 -10 -5 -10 6 0 17 5 25 10 8 5 11 10 5 10 -5
0 -17 -5 -25 -10z"/>
<path d="M2373 3140 c0 -25 2 -35 4 -22 2 12 2 32 0 45 -2 12 -4 2 -4 -23z"/>
<path d="M3178 3333 c7 -3 16 -2 19 1 4 3 -2 6 -13 5 -11 0 -14 -3 -6 -6z"/>
<path d="M2080 2436 c0 -2 17 -15 38 -27 20 -13 48 -35 61 -49 18 -19 21 -20
13 -5 -5 11 -18 28 -29 36 -20 18 -83 52 -83 45z"/>
<path d="M2239 2202 c47 -80 84 -133 89 -128 4 5 -104 176 -113 176 -2 0 8
-22 24 -48z"/>
<path d="M2336 2061 c-4 -5 -2 -12 3 -15 5 -4 12 -2 15 3 4 5 2 12 -3 15 -5 4
-12 2 -15 -3z"/>
<path d="M2098 1453 c7 -3 16 -2 19 1 4 3 -2 6 -13 5 -11 0 -14 -3 -6 -6z"/>
<path d="M3397 4063 c-4 -3 -7 -96 -7 -205 l0 -198 30 -27 c17 -15 50 -40 73
-55 l42 -28 8 38 c13 59 4 373 -11 400 -14 24 -97 82 -117 82 -7 0 -15 -3 -18
-7z"/>
<path d="M1454 3962 c-65 -74 -85 -103 -127 -188 -93 -185 -106 -384 -36 -566
17 -43 34 -78 38 -78 4 0 22 27 39 60 26 50 30 64 21 83 -10 22 -5 30 60 93
l71 70 0 292 c0 161 -3 292 -7 291 -5 0 -31 -26 -59 -57z"/>
<path d="M1130 3744 c-25 -23 -44 -51 -51 -76 -15 -56 -1 -66 50 -38 31 18 44
33 56 68 30 90 12 106 -55 46z"/>
<path d="M3999 3773 c-7 -45 24 -113 65 -141 18 -12 37 -22 43 -22 33 0 17 85
-25 130 -26 27 -81 49 -83 33z"/>
<path d="M4176 3616 c-9 -19 -16 -41 -16 -50 0 -30 29 -88 42 -84 19 7 29 75
18 119 -14 52 -25 55 -44 15z"/>
<path d="M974 3628 c-13 -20 -9 -137 5 -151 15 -15 26 0 41 55 16 58 -22 136
-46 96z"/>
<path d="M4060 3563 c0 -28 26 -60 60 -71 22 -8 30 -8 30 1 -1 17 -30 52 -62
72 -27 17 -28 17 -28 -2z"/>
<path d="M1072 3539 c-28 -28 -42 -59 -27 -59 27 0 95 61 95 85 0 16 -41 1
-68 -26z"/>
<path d="M906 3476 c-10 -54 13 -124 35 -110 22 13 2 144 -21 144 -4 0 -11
-15 -14 -34z"/>
<path d="M4249 3478 c-15 -36 -16 -95 -1 -110 14 -14 42 30 42 67 0 38 -10 75
-20 75 -4 0 -13 -14 -21 -32z"/>
<path d="M4083 3443 c-30 -6 -29 -19 6 -54 24 -24 38 -29 75 -29 35 0 46 4 46
15 0 20 -44 65 -64 65 -8 0 -20 2 -28 4 -7 2 -23 1 -35 -1z"/>
<path d="M1017 3429 c-9 -5 -24 -23 -32 -38 -13 -27 -13 -29 7 -34 11 -3 34
-3 50 0 30 6 88 53 88 72 0 14 -89 14 -113 0z"/>
<path d="M4621 3170 c-86 -9 -117 -24 -137 -62 -21 -40 -18 -65 9 -72 42 -11
128 -6 158 9 31 17 31 35 -1 35 -27 0 -34 17 -11 29 15 9 72 75 59 70 -2 -1
-36 -5 -77 -9z"/>
<path d="M530 3161 c0 -6 16 -22 35 -37 41 -31 44 -44 11 -44 -38 0 -40 -17
-5 -36 35 -18 160 -17 178 1 7 7 3 25 -9 53 -14 31 -29 47 -54 57 -39 17 -156
20 -156 6z"/>
<path d="M766 3108 c9 -29 20 -58 25 -64 7 -8 -10 -19 -57 -35 l-66 -23 38
-17 c49 -22 114 -23 161 -4 35 15 35 16 30 61 -7 62 -48 105 -124 128 l-22 7
15 -53z"/>
<path d="M4423 3143 c-46 -16 -103 -73 -103 -103 0 -10 -3 -25 -6 -34 -4 -10
5 -22 28 -36 41 -25 112 -26 168 -4 l41 17 -38 17 c-21 9 -50 20 -66 24 -25 6
-26 8 -13 29 15 24 40 97 34 101 -1 2 -22 -3 -45 -11z"/>
<path d="M929 3074 c-13 -15 -6 -94 12 -142 l11 -27 18 35 c31 56 23 129 -14
143 -8 3 -20 -1 -27 -9z"/>
<path d="M4237 3062 c-23 -25 -21 -78 4 -118 24 -40 39 -36 39 11 0 19 5 46
10 60 7 18 7 33 0 46 -13 24 -32 24 -53 1z"/>
<path d="M1021 3026 c-11 -13 -9 -55 6 -108 7 -26 22 -22 34 10 7 15 16 37 22
50 20 43 -33 83 -62 48z"/>
<path d="M4120 3025 c-10 -12 -10 -21 -1 -41 6 -14 11 -38 11 -54 0 -35 10
-38 34 -11 23 25 32 87 16 106 -16 19 -44 19 -60 0z"/>
<path d="M3400 2858 c-58 -17 -106 -31 -107 -32 -1 -1 1 -18 6 -37 5 -19 12
-47 16 -63 7 -32 8 -32 148 5 60 17 77 25 77 39 0 28 -23 120 -29 119 -3 0
-53 -14 -111 -31z"/>
<path d="M543 2723 c-15 -3 -23 -12 -23 -24 0 -21 20 -25 37 -8 13 13 33 4 33
-17 0 -8 -9 -14 -19 -14 -40 0 -51 -11 -51 -51 l0 -39 50 0 c38 0 50 4 50 15
0 10 -11 15 -35 15 -46 0 -49 27 -2 32 29 3 32 6 35 42 4 52 -10 61 -75 49z"/>
<path d="M657 2716 c-9 -9 -13 -30 -11 -58 1 -23 3 -53 3 -66 1 -21 5 -23 49
-20 l47 3 3 63 c2 38 -2 69 -9 78 -15 18 -63 18 -82 0z m63 -66 c0 -43 -3 -50
-20 -50 -17 0 -20 7 -20 50 0 43 3 50 20 50 17 0 20 -7 20 -50z"/>
<path d="M4462 2721 c-9 -5 -12 -28 -10 -77 l3 -69 33 -3 c18 -2 40 2 48 9 18
14 19 120 2 137 -14 14 -57 16 -76 3z m49 -48 c0 -16 2 -36 4 -46 3 -17 -20
-35 -31 -24 -9 9 -16 68 -10 83 10 25 36 16 37 -13z"/>
<path d="M4593 2720 c-21 -8 -23 -16 -23 -74 0 -61 2 -66 24 -72 13 -3 37 -4
52 -2 28 3 29 5 32 66 4 87 -19 109 -85 82z m52 -70 c0 -38 -3 -45 -20 -45
-15 0 -21 8 -23 33 -4 45 4 64 25 60 14 -3 18 -13 18 -48z"/>
<path d="M3568 2490 c2 -52 6 -97 8 -99 7 -8 3 115 -5 154 -6 27 -7 8 -3 -55z"/>
<path d="M506 2454 c-9 -8 -16 -17 -16 -19 0 -2 7 -11 16 -19 13 -13 43 -16
175 -16 150 0 159 1 159 19 0 50 -2 51 -165 51 -126 0 -156 -3 -169 -16z"/>
<path d="M4389 2463 c-1 -5 -2 -20 -3 -35 l-2 -28 152 0 c84 0 159 3 168 6 9
3 16 16 16 29 0 13 -7 26 -16 29 -23 9 -314 7 -315 -1z"/>
<path d="M585 2310 c-8 -13 3 -30 21 -30 21 0 17 -38 -6 -57 -26 -22 -25 -27
5 -41 54 -25 111 -9 85 23 -9 11 -17 12 -31 4 -23 -12 -25 3 -3 22 8 7 13 21
11 31 -4 13 0 18 15 18 13 0 18 6 16 18 -2 13 -15 18 -55 20 -28 2 -54 -2 -58
-8z"/>
<path d="M4497 2306 c-4 -11 1 -18 17 -22 18 -4 23 -12 22 -37 -1 -18 -8 -38
-16 -44 -13 -11 -13 -14 0 -23 8 -5 34 -10 58 -10 36 0 43 3 40 18 -2 10 -13
17 -26 17 -26 1 -26 1 -12 41 6 18 20 34 32 37 11 3 18 12 16 19 -7 20 -124
24 -131 4z"/>
<path d="M873 2093 c-7 -2 -13 -9 -13 -15 0 -14 43 -6 48 10 4 12 -12 15 -35
5z"/>
<path d="M680 1790 c-19 -4 -52 -11 -72 -14 -23 -4 -38 -13 -38 -21 0 -22 13
-25 61 -14 24 6 82 14 129 17 70 6 85 10 88 25 3 15 -5 17 -65 16 -37 -1 -84
-5 -103 -9z"/>
<path d="M4350 1781 c0 -16 11 -19 93 -24 50 -3 114 -11 141 -18 40 -10 49
-10 57 2 4 8 5 17 1 20 -14 13 -165 39 -228 39 -56 0 -64 -2 -64 -19z"/>
<path d="M866 1663 c-75 -37 -136 -73 -136 -80 0 -17 34 -84 68 -135 22 -34
29 -38 66 -38 44 0 103 23 162 64 75 51 92 113 53 194 -17 35 -49 62 -73 62
-2 0 -64 -30 -140 -67z m140 -58 c8 -31 -4 -46 -59 -78 -71 -41 -84 -42 -101
-9 l-15 30 77 40 c42 22 80 41 84 41 4 1 10 -10 14 -24z"/>
<path d="M4103 1639 c-7 -7 -13 -26 -13 -41 0 -22 22 -52 103 -136 98 -103
139 -142 150 -142 3 0 15 16 27 35 l21 35 -26 23 -27 23 22 43 c21 42 22 43
63 37 l42 -6 16 45 c19 53 33 46 -131 71 -162 24 -233 28 -247 13z m194 -102
c2 -3 -1 -15 -7 -27 l-12 -22 -29 28 c-16 15 -29 31 -29 35 0 7 68 -5 77 -14z"/>
<path d="M3962 1388 c-45 -51 -82 -98 -82 -104 0 -6 11 -21 25 -34 l25 -24 30
29 30 29 95 -94 95 -95 32 32 31 32 -102 98 -102 98 30 36 30 36 -28 27 -28
27 -81 -93z"/>
<path d="M1063 1423 c-111 -84 -123 -96 -129 -129 -8 -45 1 -76 32 -113 31
-38 78 -48 125 -28 42 19 147 120 160 155 15 39 2 87 -32 122 -44 44 -92 42
-156 -7z m107 -68 c11 -14 5 -24 -43 -70 -59 -57 -89 -68 -106 -37 -10 20 13
48 83 100 34 26 49 27 66 7z"/>
<path d="M1515 1359 c-11 -17 1 -21 15 -4 8 9 8 15 2 15 -6 0 -14 -5 -17 -11z"/>
<path d="M1660 1361 c-8 -5 -26 -12 -39 -16 -18 -5 -22 -4 -16 6 4 8 -2 3 -13
-11 -12 -14 -20 -26 -19 -26 4 -5 106 22 113 29 4 4 37 8 73 8 52 1 59 3 36 9
-42 11 -117 11 -135 1z"/>
<path d="M1218 1143 l-117 -118 22 -27 c13 -16 27 -28 32 -28 5 0 36 26 69 58
33 32 56 48 52 37 -14 -40 -37 -147 -32 -152 3 -3 34 4 70 15 37 11 66 16 66
12 0 -5 -3 -10 -7 -12 -5 -1 -23 -22 -42 -46 l-33 -43 23 -25 c12 -13 26 -24
30 -24 7 0 166 196 202 250 22 32 22 37 -7 55 -23 15 -28 14 -110 -28 -100
-52 -98 -54 -66 80 22 89 18 113 -19 113 -9 0 -69 -53 -133 -117z"/>
<path d="M3792 1187 c-23 -24 -28 -43 -14 -49 5 -1 55 -56 111 -121 l103 -117
28 20 c16 12 32 25 35 30 3 5 -34 51 -82 102 -49 51 -101 108 -117 126 -16 17
-33 32 -36 32 -4 0 -16 -10 -28 -23z"/>
<path d="M3630 1060 c-21 -16 -23 -22 -13 -37 7 -10 22 -34 33 -53 37 -62 146
-214 157 -217 6 -2 24 7 39 20 l28 25 -47 68 c-95 137 -152 213 -162 213 -5 0
-21 -8 -35 -19z"/>
<path d="M1608 958 c-19 -29 -62 -94 -96 -145 l-62 -92 29 -20 c37 -27 48 -26
62 2 6 12 48 78 92 146 l81 124 -23 18 c-34 28 -44 24 -83 -33z"/>
<path d="M3468 963 l-26 -17 64 -122 65 -123 -21 -21 c-33 -33 -56 -11 -116
117 -45 96 -57 114 -71 108 -10 -4 -26 -10 -35 -12 -10 -3 -18 -11 -18 -18 0
-26 130 -274 149 -284 34 -19 95 -13 132 12 61 41 74 97 40 168 -43 88 -115
209 -125 209 -6 0 -23 -8 -38 -17z"/>
<path d="M1761 864 c-17 -37 -54 -106 -81 -156 -28 -49 -48 -93 -46 -97 7 -10
65 -35 70 -30 2 2 22 40 44 84 l41 80 1 -107 0 -107 40 -12 c25 -8 44 -9 50
-3 11 12 130 303 130 319 0 11 -29 24 -53 25 -4 0 -27 -39 -50 -87 l-42 -88
-3 110 c-2 89 -6 112 -19 123 -34 25 -50 14 -82 -54z"/>
<path d="M3082 801 c-34 -10 -65 -21 -68 -24 -5 -4 35 -201 56 -272 4 -16 11
-43 14 -58 6 -26 10 -28 39 -22 48 11 52 19 38 76 -11 43 -11 53 0 60 10 7 27
-5 61 -41 26 -27 49 -50 53 -50 3 0 22 7 42 15 l37 16 -48 48 c-44 45 -47 51
-40 82 20 89 -21 172 -92 184 -16 2 -57 -4 -92 -14z m101 -92 c20 -27 10 -58
-20 -65 -31 -8 -40 1 -48 49 -7 36 -7 37 23 37 20 0 36 -7 45 -21z"/>
<path d="M2130 783 c-19 -10 -44 -32 -56 -50 -24 -35 -54 -144 -54 -194 0 -61
46 -108 111 -111 13 -1 29 -5 34 -9 6 -4 21 -9 35 -11 22 -3 25 2 42 72 28
122 26 130 -43 134 -28 1 -33 -3 -40 -29 -6 -19 -5 -32 3 -36 16 -10 2 -39
-20 -39 -42 0 -46 25 -22 111 27 94 40 105 99 84 44 -15 46 -14 55 31 6 26 3
32 -18 42 -48 22 -90 23 -126 5z"/>
<path d="M2863 752 c-39 -4 -39 -2 -18 -207 8 -77 15 -145 15 -152 0 -7 14 -9
43 -6 23 3 43 6 44 7 1 1 -2 33 -7 71 -5 39 -14 117 -19 175 -6 57 -15 107
-19 110 -4 3 -22 4 -39 2z"/>
<path d="M2425 741 c-48 -21 -65 -55 -77 -148 -14 -116 -7 -153 38 -192 60
-53 146 -35 180 37 20 42 30 206 15 244 -5 15 -21 34 -35 43 -30 20 -93 28
-121 16z m64 -80 c20 -13 12 -174 -10 -196 -18 -19 -46 -11 -54 16 -10 30 6
159 22 175 17 16 23 17 42 5z"/>
</g>
</svg>
